<?xml version="1.0" encoding="UTF-8" standalone="no"?>
<svg
   xmlns:dc="http://purl.org/dc/elements/1.1/"
   xmlns:cc="http://creativecommons.org/ns#"
   xmlns:rdf="http://www.w3.org/1999/02/22-rdf-syntax-ns#"
   xmlns:svg="http://www.w3.org/2000/svg"
   xmlns="http://www.w3.org/2000/svg"
   xmlns:sodipodi="http://sodipodi.sourceforge.net/DTD/sodipodi-0.dtd"
   xmlns:inkscape="http://www.inkscape.org/namespaces/inkscape"
   version="1.1"
   id="Contours"
   x="0px"
   y="0px"
   width="1069.627319"
   height="1069.231812"
   viewBox="0.000000 0.000000 1069.627319 1069.231812"
   xml:space="preserve"
   stroke="black"
   fill="none"
   stroke-linecap="round"
   stroke-linejoin="round"
   sodipodi:docname="IVSS_20211128_141310.svg"
   inkscape:version="1.0.2 (e86c870879, 2021-01-15, custom)"><metadata
   id="metadata25"><rdf:RDF><cc:Work
       rdf:about=""><dc:format>image/svg+xml</dc:format><dc:type
         rdf:resource="http://purl.org/dc/dcmitype/StillImage" /></cc:Work></rdf:RDF></metadata><defs
   id="defs23" /><sodipodi:namedview
   pagecolor="#ffffff"
   bordercolor="#666666"
   borderopacity="1"
   objecttolerance="10"
   gridtolerance="10"
   guidetolerance="10"
   inkscape:pageopacity="0"
   inkscape:pageshadow="2"
   inkscape:window-width="1360"
   inkscape:window-height="705"
   id="namedview21"
   showgrid="false"
   inkscape:zoom="0.48174739"
   inkscape:cx="534.85053"
   inkscape:cy="534.6875"
   inkscape:window-x="-8"
   inkscape:window-y="-8"
   inkscape:window-maximized="1"
   inkscape:current-layer="Contours"
   inkscape:document-rotation="0" />
<desc
   id="desc2">
</desc>
<g
   aria-label="IVSS"
   transform="scale(0.98003656,1.0203701)"
   id="text852"
   style="font-style:normal;font-variant:normal;font-weight:normal;font-stretch:normal;font-size:88.3861px;line-height:1.25;font-family:'Neue Haas Grotesk Display Pro';-inkscape-font-specification:'Neue Haas Grotesk Display Pro';fill:#001b68;fill-opacity:1;stroke:none;stroke-width:2.20966"><path
     d="m 275.70093,317.25827 v -63.19606 h 18.4727 v 63.19606 z"
     style="font-style:normal;font-variant:normal;font-weight:normal;font-stretch:normal;font-family:'Neue Haas Grotesk Display Pro';-inkscape-font-specification:'Neue Haas Grotesk Display Pro';fill:#001b68;fill-opacity:1;stroke-width:2.20966"
     id="path840" /><path
     d="m 317.77255,317.25827 -20.24041,-63.19606 h 19.00301 l 8.66184,29.69773 3.09351,12.28567 h 0.17677 q 1.59095,-6.89412 3.09352,-12.28567 l 8.48506,-29.69773 h 18.73786 l -20.32881,63.19606 z"
     style="font-style:normal;font-variant:normal;font-weight:normal;font-stretch:normal;font-family:'Neue Haas Grotesk Display Pro';-inkscape-font-specification:'Neue Haas Grotesk Display Pro';fill:#001b68;fill-opacity:1;stroke-width:2.20966"
     id="path842" /><path
     d="m 386.71348,318.76083 q -12.90437,0 -20.94751,-5.56832 -8.04313,-5.56832 -8.21991,-16.08627 h 18.91463 q 0.88386,7.42443 10.60633,7.42443 3.1819,0 5.56833,-1.2374 2.47481,-1.3258 2.47481,-3.97738 0,-2.91674 -4.15415,-4.50769 -1.85611,-0.70709 -7.86636,-2.20965 -4.06576,-0.97225 -6.62896,-1.76772 -2.5632,-0.79548 -6.09864,-2.38643 -3.53545,-1.67933 -5.65671,-3.53544 -2.03288,-1.9445 -3.53545,-5.03801 -1.50256,-3.09351 -1.50256,-6.9825 0,-10.25279 7.24766,-15.11403 7.24766,-4.86123 18.82624,-4.86123 6.89412,0 12.37405,1.85611 5.47994,1.85611 9.19216,6.3638 3.71221,4.4193 3.8006,11.04826 h -18.29592 q -0.88386,-5.65671 -8.04314,-5.65671 -3.00512,0 -4.94962,1.2374 -1.94449,1.23741 -1.94449,3.1819 0,0.61871 0.17677,1.14902 0.17677,0.44193 0.6187,0.88386 0.44193,0.44193 0.88386,0.79548 0.53032,0.35354 1.41418,0.70709 0.88386,0.26516 1.59095,0.53031 0.79548,0.26516 2.12127,0.61871 1.32579,0.26516 2.29804,0.53031 1.06063,0.26516 2.73996,0.61871 1.67934,0.35354 3.00513,0.70708 4.59608,1.14902 7.86636,2.47482 3.27029,1.2374 6.54058,3.53544 3.35867,2.20965 5.038,5.83348 1.76773,3.53545 1.76773,8.3083 0,9.98763 -7.77798,15.55595 -7.68959,5.56832 -19.44494,5.56832 z"
     style="font-style:normal;font-variant:normal;font-weight:normal;font-stretch:normal;font-family:'Neue Haas Grotesk Display Pro';-inkscape-font-specification:'Neue Haas Grotesk Display Pro';fill:#001b68;fill-opacity:1;stroke-width:2.20966"
     id="path844" /><path
     d="m 445.75516,318.76083 q -12.90437,0 -20.9475,-5.56832 -8.04314,-5.56832 -8.21991,-16.08627 h 18.91463 q 0.88386,7.42443 10.60633,7.42443 3.1819,0 5.56832,-1.2374 2.47481,-1.3258 2.47481,-3.97738 0,-2.91674 -4.15414,-4.50769 -1.85611,-0.70709 -7.86637,-2.20965 -4.06576,-0.97225 -6.62895,-1.76772 -2.5632,-0.79548 -6.09864,-2.38643 -3.53545,-1.67933 -5.65672,-3.53544 -2.03288,-1.9445 -3.53544,-5.03801 -1.50256,-3.09351 -1.50256,-6.9825 0,-10.25279 7.24766,-15.11403 7.24766,-4.86123 18.82624,-4.86123 6.89411,0 12.37405,1.85611 5.47994,1.85611 9.19216,6.3638 3.71221,4.4193 3.8006,11.04826 H 451.8538 q -0.88386,-5.65671 -8.04313,-5.65671 -3.00513,0 -4.94962,1.2374 -1.9445,1.23741 -1.9445,3.1819 0,0.61871 0.17678,1.14902 0.17677,0.44193 0.6187,0.88386 0.44193,0.44193 0.88386,0.79548 0.53032,0.35354 1.41418,0.70709 0.88386,0.26516 1.59095,0.53031 0.79547,0.26516 2.12126,0.61871 1.3258,0.26516 2.29804,0.53031 1.06064,0.26516 2.73997,0.61871 1.67934,0.35354 3.00513,0.70708 4.59608,1.14902 7.86636,2.47482 3.27029,1.2374 6.54057,3.53544 3.35868,2.20965 5.03801,5.83348 1.76772,3.53545 1.76772,8.3083 0,9.98763 -7.77797,15.55595 -7.68959,5.56832 -19.44495,5.56832 z"
     style="font-style:normal;font-variant:normal;font-weight:normal;font-stretch:normal;font-family:'Neue Haas Grotesk Display Pro';-inkscape-font-specification:'Neue Haas Grotesk Display Pro';fill:#001b68;fill-opacity:1;stroke-width:2.20966"
     id="path846" /></g><path
   d="M561.3 1069.2 C544.2 1069.2 527.0 1069.2 509.6 1069.0 C509.3 1022.0 509.3 975.3 509.4 928.6 C509.5 924.1 508.1 923.1 503.8 923.1 C488.3 923.4 472.8 923.2 457.3 923.2 C451.2 923.2 450.4 922.2 451.3 916.3 C452.5 908.6 453.4 900.8 454.3 893.1 C455.1 886.5 455.6 880.0 456.4 873.4 C457.6 862.6 459.1 851.8 460.3 841.1 C461.1 834.7 461.6 828.3 462.4 821.9 C463.6 811.8 465.1 801.7 466.3 791.5 C467.2 784.2 467.5 776.8 468.4 769.4 C469.9 756.2 471.7 743.1 473.3 730.0 C474.1 723.4 474.6 716.8 475.4 710.3 C476.6 700.0 478.1 689.7 479.3 679.4 C480.2 672.1 480.5 664.6 481.4 657.3 C482.6 646.8 484.0 636.4 485.4 625.9 C486.3 619.2 487.4 612.4 488.3 605.7 C489.1 600.1 489.7 594.6 490.3 589.0 C490.4 588.1 490.0 587.2 489.8 586.2 C489.0 586.9 487.8 587.3 487.4 588.2 C478.6 604.6 465.7 617.9 453.3 631.5 C445.0 640.7 435.5 648.9 425.9 657.0 C416.0 665.3 405.0 672.6 391.9 674.8 C385.6 675.9 385.3 678.5 385.3 683.5 C385.4 803.1 385.3 922.8 385.3 1042.5 C385.3 1048.0 384.7 1048.4 379.1 1046.5 C361.6 1040.4 344.1 1034.5 326.8 1028.0 C322.9 1026.5 317.7 1025.1 317.4 1019.3 C317.0 1013.9 316.7 1008.5 316.3 1003.2 C316.0 998.7 315.7 994.1 315.3 989.6 C314.0 975.0 312.7 960.4 311.4 945.8 C311.0 941.6 310.7 937.4 310.3 933.2 C309.0 919.9 307.6 906.6 306.4 893.3 C305.6 884.5 305.1 875.5 304.3 866.7 C303.1 853.5 301.5 840.4 300.4 827.3 C300.1 823.5 298.6 822.2 295.0 822.2 C285.8 822.3 276.6 822.4 267.5 822.2 C262.7 822.0 261.3 823.9 261.3 828.6 C261.4 881.1 261.3 933.6 261.4 986.1 C261.4 987.4 261.6 988.7 261.6 990.0 C261.6 991.2 261.4 992.5 261.3 993.7 C260.1 993.5 258.6 993.6 257.6 992.9 C248.3 986.8 238.8 980.9 229.9 974.2 C211.9 960.6 193.8 947.2 176.6 932.7 C164.6 922.5 153.6 911.0 143.1 899.2 C129.1 883.6 115.7 867.4 102.7 851.0 C86.3 830.0 72.5 807.3 60.3 783.6 C55.0 773.3 49.8 762.9 45.1 752.4 C39.9 740.6 34.8 728.6 30.4 716.5 C18.9 684.6 9.6 652.1 5.4 618.3 C3.3 601.4 1.0 584.4 0.6 567.4 C0.0 541.2 0.9 515.0 1.4 488.8 C1.6 480.1 2.3 471.3 3.4 462.7 C5.1 450.5 6.7 438.2 9.5 426.2 C13.9 407.0 18.7 387.8 24.4 368.9 C32.1 342.8 42.3 317.7 55.3 293.7 C63.7 278.3 71.3 262.5 80.6 247.7 C98.6 219.1 119.3 192.5 142.4 167.8 C152.1 157.5 162.4 147.5 173.1 138.2 C187.7 125.5 202.4 112.9 217.9 101.5 C233.8 89.8 250.5 79.0 267.4 68.9 C281.3 60.7 296.0 53.5 310.6 46.6 C323.6 40.6 336.9 35.3 350.4 30.3 C373.7 21.7 397.4 14.2 422.0 10.1 C438.9 7.2 455.8 3.6 472.8 1.4 C484.4 0.0 496.2 0.5 507.9 0.3 C512.8 0.1 517.7 0.2 522.6 0.2 C531.4 0.2 540.1 0.1 548.9 0.3 C563.4 0.5 578.0 0.8 592.5 1.3 C597.0 1.4 601.6 1.5 606.1 2.3 C618.3 4.4 630.6 6.5 642.7 9.3 C660.7 13.5 678.9 17.4 696.4 23.2 C717.5 30.1 738.1 38.3 758.5 47.1 C780.8 56.8 802.0 68.8 822.6 82.0 C847.9 98.1 871.8 116.3 893.9 136.5 C907.7 149.2 920.7 162.7 933.1 176.8 C946.0 191.4 958.6 206.6 969.8 222.5 C982.8 241.1 995.3 260.1 1006.1 280.0 C1022.7 310.3 1036.3 342.1 1046.0 375.4 C1050.0 389.3 1054.2 403.1 1057.2 417.2 C1060.6 433.7 1063.1 450.3 1065.2 466.9 C1067.2 482.4 1068.8 498.1 1069.2 513.7 C1069.6 532.8 1068.7 551.9 1068.3 571.0 C1068.2 576.9 1068.0 582.8 1067.3 588.6 C1065.5 602.3 1063.7 616.0 1061.2 629.6 C1059.1 641.7 1056.4 653.8 1053.2 665.7 C1049.3 680.7 1045.2 695.7 1040.2 710.3 C1036.0 722.7 1030.9 734.8 1025.3 746.6 C1015.2 767.7 1005.4 788.9 993.6 809.0 C982.7 827.5 969.7 845.0 956.6 862.1 C945.3 876.9 932.9 890.9 920.3 904.6 C910.2 915.5 899.2 925.6 888.2 935.7 C881.1 942.2 873.4 948.1 865.9 954.2 C864.1 955.6 862.9 956.6 862.2 952.9 C860.9 945.4 859.0 938.0 857.2 930.6 C853.6 915.7 849.8 900.9 846.4 886.0 C841.2 863.3 836.4 840.5 831.3 817.8 C827.8 801.9 824.0 786.1 820.3 770.3 C815.3 748.7 810.4 727.1 805.2 705.6 C804.8 703.9 802.9 702.7 801.7 701.2 C800.2 702.6 797.7 703.8 797.5 705.4 C796.2 714.6 795.2 723.8 794.4 733.1 C793.8 739.4 793.9 745.8 793.3 752.2 C792.1 764.5 790.5 776.7 789.4 789.0 C788.5 798.9 788.2 808.8 787.3 818.7 C786.2 830.7 784.6 842.6 783.4 854.5 C782.2 865.6 781.3 876.7 780.3 887.8 C779.0 902.9 777.7 918.0 776.3 933.1 C775.4 943.7 774.2 954.3 773.4 964.9 C772.3 978.3 771.4 991.7 770.3 1005.1 C769.9 1011.1 768.9 1015.9 761.8 1018.6 C747.9 1023.7 734.4 1030.4 720.6 1036.2 C713.4 1039.2 713.3 1038.8 713.3 1030.9 C713.7 985.5 714.0 940.1 714.3 894.7 C714.7 849.6 715.0 804.6 715.3 759.6 C715.7 713.8 716.0 668.0 716.4 622.2 C716.6 596.6 717.0 571.1 717.3 545.6 C717.3 544.5 716.3 543.4 715.8 542.2 C715.1 542.6 714.4 542.8 713.8 543.3 C710.5 546.2 707.5 549.4 704.0 552.0 C679.0 570.7 651.5 583.0 619.8 584.4 C618.6 584.4 616.6 586.5 616.5 587.7 C616.3 591.0 617.0 594.4 617.3 597.7 C618.3 607.1 619.2 616.6 620.4 626.0 C621.9 638.3 623.7 650.6 625.3 662.9 C626.1 669.1 626.6 675.4 627.4 681.6 C628.6 691.2 630.1 700.8 631.3 710.4 C632.1 716.8 632.5 723.2 633.4 729.6 C634.9 741.2 636.8 752.9 638.3 764.5 C639.2 770.9 639.5 777.3 640.4 783.7 C641.6 793.0 643.1 802.2 644.3 811.5 C645.2 818.4 645.5 825.3 646.4 832.2 C647.9 844.0 649.7 855.8 651.3 867.6 C652.1 873.8 652.6 880.1 653.4 886.3 C654.6 896.9 655.9 907.5 657.4 918.1 C658.0 922.5 656.0 923.3 652.1 923.3 C631.1 923.1 610.1 923.4 589.1 923.1 C584.5 923.1 583.2 924.2 583.2 928.9 C583.4 972.4 583.3 1015.9 583.3 1059.4 C583.3 1060.4 583.5 1061.4 583.3 1062.4 C582.8 1065.1 582.0 1067.4 578.2 1067.3 C573.0 1067.2 567.8 1067.9 562.6 1068.3 C562.2 1068.3 561.8 1068.9 561.3 1069.2 M116.3 325.7 C108.3 345.1 99.7 364.2 92.5 383.9 C84.5 406.1 78.5 428.9 75.4 452.3 C72.9 470.5 69.3 488.7 68.7 506.9 C67.9 530.6 66.8 554.4 70.3 578.1 C72.4 592.2 73.8 606.5 76.5 620.6 C79.5 636.0 83.1 651.4 87.3 666.6 C95.5 695.8 106.9 723.8 121.4 750.4 C127.2 761.1 133.2 771.6 139.6 781.9 C154.3 805.9 171.9 827.7 190.4 848.9 C190.9 849.4 191.6 849.8 192.3 850.2 C192.6 849.5 193.2 848.8 193.3 848.0 C195.8 835.8 198.2 823.7 200.6 811.5 C203.2 798.5 207.1 785.9 206.6 772.2 C205.7 747.6 206.3 722.9 206.4 698.2 C206.4 696.3 206.9 694.5 207.4 692.6 C208.9 686.1 206.4 679.7 201.0 676.4 C192.7 671.3 184.0 666.9 176.3 661.1 C161.5 649.9 146.8 638.3 132.9 626.0 C125.1 619.0 118.5 610.5 112.0 602.2 C103.5 591.2 95.8 579.6 91.5 566.3 C88.2 556.1 85.9 545.5 83.4 535.1 C82.0 529.1 84.0 526.7 89.3 526.7 C100.6 526.9 111.9 527.1 123.2 527.2 C130.2 527.3 137.3 528.0 144.1 527.0 C150.1 526.1 152.6 528.3 154.8 533.1 C162.5 549.4 172.6 564.4 184.6 577.7 C196.8 591.3 210.5 603.1 226.6 612.5 C247.8 624.9 270.7 630.4 294.8 631.0 C304.8 631.3 314.8 629.4 324.7 628.2 C340.4 626.3 354.8 620.8 368.5 613.2 C387.4 602.8 402.8 588.4 415.2 570.9 C428.1 552.7 437.4 532.8 443.1 511.4 C444.6 505.9 446.6 504.1 452.1 504.1 C499.0 504.3 545.8 504.2 592.6 504.2 C594.5 504.2 596.5 504.0 598.2 503.2 C605.4 499.7 612.6 496.2 619.7 492.3 C636.3 483.3 650.3 471.0 661.3 455.7 C671.4 441.7 677.7 426.2 678.3 408.8 C678.5 402.8 678.9 402.2 684.8 402.2 C752.1 402.2 819.4 402.3 886.8 402.1 C891.0 402.1 892.4 403.0 892.5 407.5 C893.5 496.6 889.8 585.7 894.4 674.7 C894.7 681.6 895.5 688.5 896.4 695.4 C897.9 707.9 899.8 720.3 901.3 732.8 C902.2 739.7 902.5 746.6 903.4 753.5 C904.6 763.1 906.2 772.7 907.3 782.3 C908.2 790.4 908.6 798.5 909.4 806.5 C909.5 807.4 910.2 808.2 910.6 809.0 C911.2 808.4 911.9 807.9 912.3 807.2 C913.5 805.3 914.4 803.4 915.6 801.5 C924.8 786.7 934.7 772.2 943.2 757.0 C954.9 735.9 965.4 714.2 972.7 691.2 C979.1 671.0 985.1 650.6 990.1 630.0 C993.3 616.7 994.7 603.0 996.3 589.5 C998.0 574.8 999.5 560.0 1000.2 545.1 C1000.7 534.8 999.8 524.4 999.3 514.1 C998.8 504.2 998.4 494.2 997.2 484.4 C995.6 470.9 994.0 457.3 991.2 443.9 C987.6 426.9 983.6 409.8 978.6 393.2 C970.1 365.4 959.3 338.5 944.8 313.2 C937.7 300.9 931.2 288.3 923.0 276.7 C910.8 259.3 898.0 242.1 884.1 225.9 C872.9 212.8 860.3 200.8 847.5 189.1 C835.2 178.0 822.1 167.8 809.1 157.6 C790.1 142.7 769.6 130.0 748.0 119.3 C732.2 111.5 716.3 104.0 700.0 97.6 C684.4 91.6 668.4 86.8 652.3 82.4 C640.7 79.2 628.7 77.3 616.8 75.2 C604.0 73.0 591.1 70.9 578.2 69.3 C568.9 68.2 559.5 67.5 550.1 67.3 C538.2 67.2 526.3 67.7 514.5 68.3 C501.5 69.0 488.6 70.0 475.7 71.3 C465.7 72.3 455.7 73.4 445.9 75.4 C435.2 77.5 424.8 80.7 414.2 83.2 C388.5 89.3 363.8 98.3 340.0 109.4 C305.9 125.3 273.7 144.5 244.5 168.5 C227.1 182.8 209.6 196.9 195.0 214.1 C182.8 228.5 170.3 242.7 158.7 257.6 C142.2 278.5 128.7 301.4 116.3 325.7 "
   fill="#000000"
   stroke="none"
   id="path4"
   style="fill:#001b68;fill-opacity:1" />
<path
   d="M850.3 303.2 C850.2 320.2 844.4 334.7 834.5 347.6 C822.7 363.0 806.7 371.7 788.0 375.1 C768.2 378.6 749.8 373.7 733.2 362.5 C716.7 351.4 706.7 335.5 702.6 316.5 C699.4 301.5 700.9 286.4 707.3 272.0 C716.3 252.0 730.9 238.0 751.5 230.8 C768.2 224.9 785.3 225.2 802.2 231.5 C817.0 237.0 828.4 246.7 837.5 259.1 C843.8 267.7 847.8 277.5 849.3 288.2 C849.9 293.0 850.0 297.9 850.3 303.2 "
   fill="#000000"
   stroke="none"
   id="path6"
   style="fill:#001b68;fill-opacity:1" />
<path
   d="M374.3 493.2 C374.4 506.8 374.7 519.7 369.5 532.2 C364.6 543.8 357.5 553.7 348.2 561.8 C340.1 568.7 330.6 573.4 320.2 576.3 C303.7 580.9 287.8 580.0 271.9 573.4 C248.8 563.8 234.1 546.5 227.8 522.9 C221.7 499.9 226.6 478.2 241.1 459.0 C252.0 444.4 266.8 435.5 284.0 431.5 C295.7 428.7 307.9 429.0 319.7 432.3 C332.9 436.0 344.8 442.6 354.1 452.7 C364.2 463.7 371.7 476.3 373.4 491.6 C373.4 492.0 374.0 492.4 374.3 493.2 "
   fill="#000000"
   stroke="none"
   id="path8"
   style="fill:#001b68;fill-opacity:1" />
<path
   d="M478.3 354.2 C485.8 340.1 496.5 329.4 510.0 322.5 C523.8 315.4 538.8 312.6 554.7 315.0 C566.9 316.9 577.8 321.2 587.8 328.2 C602.1 338.2 611.5 351.9 616.3 368.6 C621.0 385.1 619.9 401.4 613.4 417.3 C609.6 426.5 604.3 434.8 597.3 441.6 C585.8 452.7 572.2 459.9 556.0 462.3 C534.7 465.5 515.5 460.8 498.8 447.9 C484.3 436.6 474.3 421.7 471.4 403.0 C468.8 386.2 469.7 369.9 478.3 354.2 "
   fill="#000000"
   stroke="none"
   id="path10"
   style="fill:#001b68;fill-opacity:1" />





</svg>
